<svg xmlns="http://www.w3.org/2000/svg" width="600" height="313.4" viewBox="0 0 600 313.4"><path d="M121.1 110.7c-28.3 2.1-68.6-2.2-86.6-8.9-4.2 18.8-8.1 36.6-12.2 55.4-4.1 18.4 14 36.4 34.4 43.6 20.3 8.2 42.2 10.4 42.1 11 7.5-33.6 14.9-67.6 22.3-101.1zm4.8 18.7c-2.1 8.1-15 66.6-22.5 100.2-.1.2 92.8-19.8 100.8-55.7 4.4-19.9 13.3-59.9 13.3-59.9s-44 12.2-91.6 15.4zm-3.2-27c6.5-29 13.4-59.6 19.9-88.6-30.2 3.3-58.8 3.4-88-2.3-6.3 28.2-11.9 54.2-18.2 82.4 26.2 7.8 55.8 10.6 86.3 8.5z" fill-rule="evenodd" clip-rule="evenodd" fill="#494d48"/><path d="M127.5 121.2c6.5-29.4 19.4-87.3 19.4-87.3s36.3-1.5 92.8-20.2c-4.2 19.1-20.2 91.4-20.2 91.4s-52.2 15.4-92 16.1" fill-rule="evenodd" clip-rule="evenodd" fill="#31a7b9"/><path d="M108.7 119.6l1.7-5.1c-.9-.3-1.5-.3-2.7-.3-5.8-.2-11.2 3.6-11.2 3.6s-.1-3.9-4.7-.9c3.8-1.6 3.7 1.7 2.7 2.6-3 2.5-11.3 10.6-3.8 26 1.8 3.8 4.2 7.6 3.3 12.3-1.3 6.6-4.8 9.4-8.2 11.1.1.1.1.3.2.4.3.9.7 1.9.9 3.2 9.4-5 10.8-14.2 10.8-14.2s2.7 2.2 3.9-1.7c-1.2 1.6-3.7 1-3.7-1.7-.1-3.5-1.8-7.1-3.6-10.6-10.1-19 5.6-27 10-27 .9 0 1.6.3 1.9.8.9 1.3-1.5 7.9-1.7 8.6 1.1-1.8 3.8-5.8 4.2-7.1zm-71.2 41.3c2.3-.1 4.5 4.2 6.7 2.1-.3.2-2.1.1-2.2-1.4 0 0 2.3-1.7 2.5-1.9 2-1.8 4.3-3.8 7.4-3.8-.3-1.2-.4-2.4-.5-3.6-.1-.9-.1-1.7-.4-2.4-9.5 1.8-17.5 5-20.9 7.3-1.8 1.2-4.3 3.7-4.5 5.7-.1.4 0 .9.3 1.3 1.3-1.3 2.4-2 3.3-2 .6 0 1.2.3 1.4.9.4.9.2 2.2-.3 3.3 1-.2 2.5-1.2 4.8-4.2.7-.9 1.5-1.3 2.4-1.3zm25-37c-4.8 1.3-7.4-2-12.1-2.7 2.1 6.3 10.3 5 12.1 2.7zm-13.4 66.5c.2-1.5-.5-3-1.7-3.9l-.5-.3.4-.4c4.5-5.1 7.8-8.8 17.1-10.4-5.1-1.7-7.8-3.6-10.2-8.1-2.2.2-3.6 2.2-4.6 3.9-.8 1.3-1.4 2.2-2.3 2.2-.5-.1-6.5-.8-10.1 3.4-1.5 1.8-3.1 6.7.7 7.3-3.1-3.9 4.7-10.1 7.2-6.1 0 0-3.8 6.6-7.7 11.9 1.3 1.1 2.9 2.2 4.3 3.2.6-1.2 1.5-2.5 2.4-3.7 0 0 3.8-.9 4 4.7.4-1.2.8-2.5.8-2.5h.4c1.5 0 2.7-1.1 2.7-2.6 0-.4-.1-.8-.3-1.2.1 3.6-2.6 2.6-2.6 2.6zm62.9-71.9l-.7 6.4c-.1 1 1.4 4.7 1.7 5.3.7-1.4 1.2-3.1 1.6-5.1.8-3.9.3-7-1.2-8.8-.6-.8-1.5-1.3-2.4-1.6 0 0-1.4 11.4-6.1 17.4.6 1.6 1.5 3.3 2.7 5 .2-.2.4-.4.6-.7.8-.8 1.5-1.6 2.2-2.4-2.1-6.3 1.6-15.5 1.6-15.5zm-25.7-4.8c1.9 3-2 2.9-2 2.9s-12.8-6.6-17-2.6c-1.1 1.1-3.5 3.7-3.9 4-.5.3-3.1 1.3-5.3 1.9H58c0 .5 0 1.5.2 2.1.8-.3 2.4-.7 3.8-.7 2.7 0 3.2 1.5 3.2 2.3.1 1.1-.2 2.1-.9 2.8-1.3 1.4-3.6 1.6-4.5 1.6-.5 0-1.2-.1-1.5-.2-.1 0-.4.1-.8.2.1 1.4.5 1.9 1.3 1.7.8-.2 2.7.1 3.2.2l.4.1v.4c0 .7-.3 5-.3 5-.1 7 3.3 13.8 5.1 17-.2-2 .4-10.6.4-10.6s1.3 7.8 3.4 10.9c-.2-2.6-.3-5.3-.4-7.9 0 0 2.3 6.9 4.1 9-.3-1.1-1-5.7-1-5.7s1.7 3.9 4.7 6.8c-.6-1-2.7-5.1 1.3-11.3 1.7-2.7 2.8-6.3 3.9-10.5-.8-1.3-3.4-5.3-3.4-5.3s2.1.8 2.3 1.1c-1.1-2.1-3.4-3.6-3.4-3.6.4.2 2.3.6 2.6.8-1.5-1.9-5.8-3.4-5.8-3.4s5.4 1.4 6.1 1.7c-2.5-3.2-8.4-3.7-8.4-3.7s4.8-.9 9.8 1.7c-6.4-7.3-13-4.2-13.6-4.1-.2 1.6-1.3 2.5-2.2 2.5-.8 0-1.6-.6-1.9-1.8h-.6l-2.5.1s13.1-8.1 22.3 1.5c-.1-.6-.3-2.2-.3-2.2s5.1-2.2 1.7-4.7zm4.9 65.6c-.3 0-.6.1-.8.3.8.3 1.3 1.1 1.3 2.3 0 1.7-1.1 3.5-3 3.5-.9 0-1.8-.3-2.8-1l-.2-.1v-.3c.7-7.7-1.7-16.6-6.7-24.8l.5 4.4s-5.5-7.3-6-8.1l2.1 10.6s-5.4-10.2-5.5-10.6l2.4 8.1-5.7-8.1c-.6-.8-5.3-7.8-6.4-16.2-11.6-8.4-20.3-9.1-22.8-9.1-1.7 0-4.9.6-6.5 2.2-.4.4-.7 1-.8 1.6.6-.1 1.2-.2 1.7-.2 1.7 0 2.1.8 2.2 1.3.3 1.3-1.1 2.9-2.4 3.7.9.5 3 .2 5.8-.9.4-.2.8-.2 1.1-.2 1.9 0 2.5 2.2 2.7 3.5v.2c1.6-.3 4.5-.6 4.5-.6s-2.6 2.8.4 4.2c-1.3-2.5 1.2-3.8 2.2-3.5 3.5 1.1 4.8 4.4 5.2 12.2.9-2.3 2.1-3.9 3.7-4.9l1.6-1-1 1.7c-3.5 6.2-3.4 12.8-2.9 14 1.2 3 3.1 6.6 7.8 8.9-2.5-7.2 2.9-12 2.9-12s-3.2 8.3.3 13.6c3.9 1.3 13.3 5.4 13.4 9.4 0 0-9.2 1.2-3.2 6.8-2.7-4.3 3.2-5 3.2-5s-.2 7.4-1.9 10.1v.1c-.7.7-1.5 1-2.4 1-1.2 0-2.3-.6-3.5-1.1-1.2-.6-2.4-1.2-3.7-1.2-.7 0-1.3.2-2 .6 1.7-.6 2.9.2 3.1 1.6.1.9-.3 1.9-1.1 2-.7.1-1.3.3-1.8.4-3.8.7-4.9 1.9-5 3.8.2.1.4.2.6.2.9-1.3 2.3-2.1 3.8-2.1 1.6 0 2.8 1 3.1 2.5h12.9c.2-1 .5-2.2.9-3.6.8-2.9 1.9-6.9 2.5-11.4l.1-.5h.5c.3.1.7.1 1 .1 3 0 4.6-1.5 5.3-2.8 1-1.8 1-3.9.4-4.9-.2-.3-.5-.7-1.1-.7zm31 27.5c-.4-2-.8-4-1.2-5.9-1.3 2.4-2.7 4.7-4 7.1l-7.2 1.8c1.5 1.1 3 2.2 4.5 3.4-1.1 2.4-2.2 4.7-3.3 7.1 2.3-1.6 4.5-3.3 6.8-4.9 1.7.8 3.5 1.7 5.2 2.5-.1-2.1-.2-4.3-.3-6.4 2.1-1.9 4.3-3.8 6.4-5.6-2.2.2-4.6.6-6.9.9zm46.3-63.4l-1.2-6c-1.3 2.4-2.7 4.8-4 7.2l-7.2 2.1c1.5 1 3 2.1 4.5 3.2l-3.3 7.2c2.3-1.7 4.6-3.4 6.8-5.2 1.8.8 3.5 1.6 5.2 2.4-.1-2.1-.2-4.3-.3-6.4 2.1-1.9 4.3-3.9 6.5-5.8-2.3.5-4.7.9-7 1.3zm-30 29.8c-.4-2-.8-3.9-1.2-5.9l-4 7.1c-2.4.7-4.8 1.3-7.2 2 1.5 1.1 3 2.2 4.6 3.2l-3.3 7.2 6.8-5.1c1.7.8 3.5 1.6 5.2 2.4-.1-2.1-.2-4.2-.3-6.4 2.2-1.9 4.3-3.8 6.5-5.7-2.4.4-4.8.8-7.1 1.2zm65.6-47.3c-.4-2.1-.7-4.2-1.2-6.2-1.3 2.3-2.7 4.7-4 7.1-2.4.6-4.7 1.2-7.1 1.8 1.5 1.1 3 2.3 4.5 3.4l-3.3 7.2c2.3-1.6 4.5-3.3 6.8-4.9 1.7.9 3.4 1.9 5.1 2.9l-.3-6.6c2.2-1.8 4.3-3.6 6.4-5.4-2.3.2-4.6.5-6.9.7zm-83.1 75zM51.2 82.1c-1.7 1.4-2.2 3.7-1 5.1 1.1 1.4 3.4 1.4 5.1 0 .3-.2.5-.5.7-.7 6.2 6.3 14.1 8.6 18.4 5 4.6-3.8 3.7-12.6-1.6-20.4l16.5-13.7 11 13.7c-8.5 7.8-12.9 16.6-9.9 20.4 2.9 3.6 11.6 1.4 20.4-5 .1.3.2.5.4.7 1.2 1.4 3.4 1.4 5.1 0 1.7-1.4 2.2-3.7 1-5.1-.2-.2-.4-.4-.6-.5 7.9-7.5 11.8-15.8 8.9-19.4-3-3.8-12.4-1.1-21.6 5.8L93 54.2l17.5-14.6 1.3 1.7-3.4 2.8 5.7 7.1 8.9-7.4-1.9-2.4-1.1.9-2.5-3.1 3.7-3.1 2.5 3.1-1.1.9 1.9 2.4 8.9-7.4-5.7-7.1-3.4 2.8-1.3-1.6 5.4-4.5-2.5-3.1-35.4 29.5L67 21.7l-3.7 3.1 3.5 4.5-2 1.6-2.3-2.9-8.5 7.1 5.9 7.4 2.9-2.4-.7-.9 3.7-3.1 2.4 3.1-3.7 3.1-.7-.9-2.9 2.4 5.9 7.4 8.5-7.1-2.3-2.8 2-1.7 11.7 14.6L70.1 68c-6.3-7-14.6-9.6-19.2-5.8-4.4 3.6-3.8 11.9 1.1 19.4-.3.2-.6.3-.8.5zm53-10c6.6-5.5 13.6-7.9 15.7-5.3 2.1 2.6-1.6 9.2-8.2 14.7C105 87 98 89.4 95.9 86.8c-2-2.6 1.6-9.1 8.3-14.7zm-49.5-5.3c3.1-2.6 9.2-.2 13.6 5.3s5.4 12.1 2.3 14.6c-3.1 2.6-9.2.2-13.6-5.3-4.4-5.4-5.4-11.9-2.3-14.6zm159.8 1.7c-11.8 10.8-26.2 24.3-33.9 31.6-.2.2-.6.4-.9.4-.1 0-.2 0-.3-.1-.4-.1-.8-.4-.9-.8-1.7-4.6-6-7.6-11.1-9.3.1 0 5.5 5.7 9.3 9.6l-1.5 2.1.6 2.3 1.7-2.3-.5-1.8c1.8 1.8 3 3.2 3 3.2l35.6-33.8s-.8-.9-1.1-1.1zm-52 17.1c-1-5.3-4.5-8.8-9.3-10.5-.4-.2-.8-.5-.9-1-.1-.5.1-.9.4-1.2 9.8-9.2 34.1-32.5 34.1-32.5-.2-.2-1-1.4-1-1.4L151 72.1l-1.6-5.6-4.6 6.4 3.5-1.8 2.2 1.4-.7.7 12.7 12.4zm-11.8-17.4l1.7-2.3-.7-2.3-1.6 2.3.6 2.3zm1.8-21.8l1.7-2.3-.6-2.3-1.7 2.3.6 2.3zm3.8 4.7l-1.8-6.4-4.5 6.4 3.5-1.7 2.8 1.7zm.2-9.9l-.7-2.3-1.6 2.3.7 2.3 1.6-2.3zm16.5 9l-1.9-6.3-4.5 6.3 3.5-1.8 2.9 1.8zm-2.2-7l-.7-2.3-1.7 2.3.7 2.3 1.7-2.3zm-15 3.2l1.7-2.3-.7-2.3-1.6 2.3.6 2.3zm53.6-11.8l1.7-2.3-.6-2.3-1.7 2.3.6 2.3zm7.3 38.6zm2.5-18.7l1.6-2.3-.7-2.3-1.7 2.3.8 2.3zm4-5.3l-.6-2.3-1.7 2.3.6 2.3 1.7-2.3zm-9.5 24.6l.6 2.3 1.7-2.3-.7-2.3-1.6 2.3zm3.9-5.3l-1.6 2.4.7 2.3 1.7-2.3-.8-2.4zm-7.2-30.9l1.7-2.3-.6-2.3-1.7 2.3.6 2.3zm13.3-4.6zm3.9-5.3l-.7-2.3-1.7 2.3.7 2.3 1.7-2.3zM227 33l1.6-2.3-.7-2.3-1.7 2.3.8 2.3zm-1.7-2.3l-.7-2.3-1.6 2.3.7 2.3 1.6-2.3zm-36.8 8.1c.1-.1.2-.1.3-.2.2-.1.4-.2.6-.2L189 37l-1.7 2.3.1.3 1.1-.8zm2 0l1.6-2.3-.6-2.3-1.7 2.3.7 2.3c-.1 0-.1 0 0 0zm-19.1 3.8l1.6-2.3-.7-2.3-1.7 2.3.8 2.3zm19.1-3.8zm-34.4 34.7c4.9 2.3 8.4 6.4 9.9 11.8l11.7-11.1c7.3-6.9 14.6-13.8 21.8-20.7-1.2-5.8-4.7-10.1-9.8-12.1l-2.9 2.7c-10.1 9.8-20.4 19.6-30.7 29.4zm16.4-28l1.6-2.3-.7-2.3-1.7 2.3.8 2.3zm36.3-10.3l-.7-2.3-1.7 2.3.7 2.3 1.7-2.3zm2.2 7.1l-1.9-6.4-4.5 6.4 3.6-1.8 2.8 1.8zm-59.6 20.6l-.7-2.3-1.6 2.3.7 2.3 1.6-2.3zM168 87.1c5.6 1.6 9.9 5 12.2 9.8 8.2-7.8 22.2-20.9 33.5-31.3-2.1-5.3-6.4-9-12.3-10.3-6.7 6.3-14.4 13.6-21.9 20.7L168 87.1zm24.8-47.3l.3-.4-.6-2.3-1.4 1.9c.6.3 1.2.5 1.7.8zm-34.1 65.3l-.7-2.3-1.6 2.3.7 2.3 1.6-2.3zm48.5-2.6l3.5-1.7 2.8 1.7-1.8-6.3-4.5 6.3zm-12.3-2.2l1.6-2.3-.7-2.3-1.7 2.3.8 2.3zm1.5 7.6l-1.8-6.3-4.5 6.3 3.5-1.7 2.8 1.7zm-2.2-7l-.7-2.3-1.6 2.3.7 2.3 1.6-2.3zm19.5-8.3l-.7-2.3-1.7 2.3.7 2.3 1.7-2.3zm-16.1 8.3l-.7-2.3-1.7 2.3.7 2.3 1.7-2.3zm11.5-5.4l.7 2.3 1.6-2.3-.7-2.3-1.6 2.3zm2.8-14.7l3.5-1.7 2.8 1.7-1.8-6.3-4.5 6.3zm.5 14.7l.7 2.3 1.7-2.3-.7-2.3-1.7 2.3zm4.3-36.3l3.6-1.8 2.8 1.8-1.8-6.3-4.6 6.3zm4.5-21.5l3.5-1.7 2.8 1.7-1.8-6.3-4.5 6.3zm.7 14.4l.6 2.3 1.7-2.3-.6-2.3-1.7 2.3zM217 73.8l.7 2.3 1.7-2.3-.7-2.3-1.7 2.3zm-41.2 30.6zm-31.6-16.8l-.7-2.3-1.6 2.3.7 2.3 1.6-2.3zm-4.1 7l3.5-1.7 2.8 1.7-1.8-6.3-4.5 6.3zm-.4 14.7l-.7-2.3-1.6 2.3.7 2.3 1.6-2.3zm-.6 5.3l2.8 1.7-1.8-6.3-4.5 6.3 3.5-1.7zm37.1-9.6l.6 2.3 1.7-2.3-.6-2.3-1.7 2.3zm-27.1-39.2l-.6-2.3-1.7 2.3.6 2.3 1.7-2.3zm-9.5 40.6l.7 2.3 1.6-2.3-.7-2.3-1.6 2.3zm5.2-19.4l1.6-2.3-.7-2.3-1.7 2.3.8 2.3zm-1.8 22.3l-.7-2.3-1.7 2.3.7 2.3 1.7-2.3zm13.8-.5l-4.5 6.3 3.5-1.8 2.8 1.8-1.8-6.3zm-11.6-21.2l.7 2.3 1.6-2.3-.7-2.3-1.6 2.3zm29.3 15l-1.7 2.3.7 2.3 1.6-2.3-.6-2.3zM171 112l3.6-1.8 2.8 1.8-1.9-6.3-4.5 6.3zm-16.9-3.9l.6 2.3 1.7-2.3-.7-2.3-1.6 2.3zm4 2.3l1.7-2.3-.7-2.3-1.6 2.3.6 2.3z" fill-rule="evenodd" clip-rule="evenodd" fill="#fff"/><path d="M311.9 143.3c-2.5-2.6-3.9-6.2-3.9-10.2 0-8.8 6.3-14.9 15.3-14.9 3.2 0 6.1.7 8.3 2.1l1.2.8v-6.4c-3.3-.7-4.7-.9-6.7-.9-7 0-12 1.5-16.1 4.8-4.6 3.7-7.2 9.2-7.2 15.2 0 7.9 4.8 14.9 12.1 17.3 2.9 1 5.9 1.5 9.5 1.5 3 0 4.9-.2 9.6-.9l4.2-8.3c-4.7 3.3-9.4 5-14 5-4.4.1-9.4-2-12.3-5.1zm-39.3 6.4c-.3.7-.8 1.1-1.9 2h22.5l2.4-7.2c-3.1 2.4-4.7 3-8.5 3.3h-2.4c-2.2 0-3.3-.1-6.3-.6v-13.9h3.6c2.8 0 4.1.5 5.3 2.1v-5.8h-8.8v-10.8h8.2c1.7 0 2.7.8 4 2.9v-7.2h-19.6c1.8 1.9 2 2.5 2 4L273 148c.1.4-.1 1.3-.4 1.7zm266.6-1c-.2.4-.2.8-.4 1-.4.6-.8 1.1-2 2h10.8c-1.2-.8-1.9-1.3-2.2-2-.3-.5-.6-1.4-.6-1.8v-29.5c0-.6.2-1.3.4-1.8.3-.6.6-1.1 1.7-2.1h-9.6c1 1 1.5 1.6 1.7 2.1.3.7.3.8.3 1.8l-.1 29.5c.2.3.2.5 0 .8zM350.8 31.2c4.8 0 8.5-2.8 8.5-8.2V8.4h-3.4v14.4c0 3.6-1.8 5.2-5.1 5.2s-5.1-1.6-5.1-5.2V8.4h-3.5V23c0 5.4 3.7 8.2 8.6 8.2zm13.1 121.4c11.8 0 19.4-7.7 19.4-19.5 0-11.5-7.8-19.4-19.4-19.4-11.6 0-19.8 7.8-19.8 19.2.1 11.7 8.1 19.7 19.8 19.7zm-13.9-20c0-8.9 5.3-14.8 13.6-14.8 8 0 14.2 7.1 14.2 16.2 0 8.7-5.4 14.9-13 14.9-8.1 0-14.7-6.7-14.7-15.6v-.7zm35.5 48.9zm-18 30.1c2.9 1 5.9 1.4 9.6 1.4 2.9 0 4.8-.1 9.5-.9l4.2-8.2c-4.7 3.4-9.4 5-14.1 5-4.2 0-9.3-2.1-12.1-5.1-2.5-2.6-3.9-6.2-3.9-10.2 0-8.8 6.3-14.9 15.3-14.9 3.2 0 6.1.7 8.2 2.1l1.2.8v-6.4c-3.3-.7-4.7-.9-6.8-.9-6.9 0-12 1.5-16.1 4.8-4.6 3.7-7.2 9.3-7.2 15.1.1 7.9 4.9 14.9 12.2 17.4zm-83.6-108.3l-3.6 8h3.3l5.2-8h-4.9zm68.3-15.9c-1.5 0-3.5-.3-5.6-1-2.6-.8-3.5-1.2-5.9-2.7l1.9 7c1.8.7 2.4.9 4.4 1.1 1.3.2 2.7.3 3.8.3 8.8 0 14.9-4.7 14.9-11.4 0-4.5-2.5-7.2-8.5-9.6l-4.7-1.9c-4-1.6-5.7-3.4-5.7-5.7 0-3.3 2.9-5.5 7.2-5.5 3 0 4.7.7 8 3.2v-6.5c-2.7-.7-4.6-1-7-1-8.4 0-14 4.2-14 10.4 0 4.1 2.7 7.5 7.5 9.3l5 2c1.9.7 4.2 2 5 2.9.7.7 1.2 2.2 1.2 3.3.2 3.3-3.2 5.8-7.5 5.8zM296 26.7h9.5l1.7 4.1h3.6L301 8.2h-.4L291 30.9h3.4l1.6-4.2zm3.6-9c.5-1.3 1.1-3.2 1.1-3.3 0 .1.6 2.1 1.1 3.3l2.4 6.1h-7.1l2.5-6.1zm-22.5 4.1h9.5v-3.1h-9.5v-7.2h10.5V8.4h-14v22.5h3.5v-9.1zm257.3 188.4c-.4.7-.8 1.1-1.9 2h22.6l2.4-7.1c-3.1 2.4-4.7 3-8.4 3.3-.8.1-1.6.1-2.4.1-2.1 0-3.3-.1-6.3-.6V194h3.5c2.9 0 4.1.5 5.3 2.1v-5.8h-8.8v-10.9h8.2c1.7 0 2.7.8 4 2.9V175H533c1.7 1.9 2 2.4 2 3.9l-.1 29.5c0 .4-.2 1.3-.5 1.8zM276.8 90.3c2.9 1.3 6.6 1.9 10.8 1.9 3.1 0 6.3-.3 9.8-1 .6-.1 1.5-.4 2.6-.6V72.1h-7.7c.9.9 1.4 1.4 1.6 2 .2.6.4 1.4.4 1.9v10.8c-3.1.9-4.8 1.2-6.7 1.2-9.6 0-16.4-6.3-16.4-15.4 0-8.8 6.2-14.6 15.5-14.6 3.3 0 5.7.6 7.8 2 .4.2.8.6 1.4.9v-6.5c-3.2-.8-4.3-.9-7.1-.9-6.6 0-10.7 1.1-14.6 3.7-5.4 3.7-8.5 9.6-8.5 16.2-.1 7.2 4.3 14 11.1 16.9zM18.9 307.4c-.9 0-1.4 0-2.7-.2v-13l.1-.3.1-.5c.1-.2.2-.3.3-.4.1-.1.3-.3.5-.6H13c.4.5.6.7.7 1 .1.3.2.4.2.8l-.1 13.3v.3c-.1.2-.1.4-.2.5-.1.3-.3.5-.8.9H23l1-3.2c-1.4 1-2.1 1.2-3.7 1.4h-1.4zm557.8-128.5c3 0 4.7.7 8 3.3v-6.6c-2.7-.7-4.6-1-7.1-1-8.4 0-13.9 4.2-13.9 10.5 0 4.1 2.7 7.5 7.5 9.3l5 2c1.9.7 4.2 2 5 2.9.7.7 1.2 2.2 1.2 3.3 0 3.2-3.3 5.7-7.7 5.7-1.4 0-3.5-.3-5.6-1-2.6-.8-3.5-1.2-5.9-2.7l1.9 7c1.8.7 2.5.9 4.4 1.1 1.3.2 2.7.3 3.8.3 8.8 0 14.9-4.6 14.9-11.4 0-4.5-2.4-7.2-8.4-9.6l-4.7-1.9c-4-1.7-5.7-3.4-5.7-5.7 0-3.4 3-5.5 7.3-5.5zm-19.3-29.2c-.4.7-.8 1.1-1.9 2H578l2.4-7.2c-3.1 2.4-4.7 3-8.4 3.3h-2.4c-2.2 0-3.3-.1-6.3-.6v-13.9h3.5c2.9 0 4.1.5 5.3 2.1v-5.8h-8.8v-10.8h8.2c1.7 0 2.7.8 4 2.9v-7.2h-19.6c1.7 1.9 2 2.4 2 4l-.1 29.5c.1.4-.2 1.3-.4 1.7zm5.8 54.9zM270 197.1c-1 1.6-1.5 3.3-1.5 5.2 0 5.9 5.6 10.7 12.9 10.7 4.5 0 7.7-1.3 9.9-4 .7-.9 1.4-1.8 2-2.7 2.9 2.7 4.2 3.7 6.2 4.7s2.9 1.2 6 1.2h7.9c-3.3-1.3-5.5-2.3-6.6-2.9-2.5-1.5-6.7-4.8-12.6-9.9-4.5-3.9-6.3-5.6-10-9.2 2.2-2 2.9-2.7 3.7-4 .8-1.3 1.3-3 1.3-4.6 0-4.2-3.4-7.1-8.4-7.1-5.2 0-9 3.4-9 7.9 0 2.7 1.4 5.3 4.5 8.2-3.9 3.1-5 4.4-6.3 6.5zm10.5-19.3c2 0 3.7 1.6 3.7 3.5 0 .9-.4 1.7-1 2.6-.6.7-1 1.1-2.7 2.7-.5-.7-.9-1.1-1.2-1.4l-1.3-1.3c-.6-.7-1.1-1.9-1.1-2.7.1-1.8 1.8-3.4 3.6-3.4zm-4.1 19.6c.8-1 1.1-1.3 3.6-3.4 4.7 4.6 5.9 5.7 10.9 10.3-.6.7-1.2 1.2-1.6 1.6-1.8 1.6-4.3 2.5-6.8 2.5-4.4 0-7.7-2.7-7.7-6.5 0-1.6.6-3.2 1.6-4.5zm35.5-108.1c-.3.7-.8 1.1-1.9 2h22.5l2.4-7.2c-3.1 2.4-4.7 3-8.4 3.3-.8.1-1.6.1-2.4.1-2.2 0-3.3-.1-6.3-.6V73h3.5c2.9 0 4.1.5 5.3 2.1v-5.8h-8.8V58.4h8.2c1.7 0 2.7.8 4 2.9v-7.1h-19.6c1.7 1.9 2 2.4 2 4l-.1 29.5c.1.3-.1 1.2-.4 1.6zm14.2-58.1c4.2 0 7.4-1.8 9.3-4.8l-2.7-1.9c-1.4 2.2-3.5 3.5-6.6 3.5-4.6 0-7.9-3.6-7.9-8.4 0-4.8 3.3-8.4 7.9-8.4 2.9 0 5 1.3 6.3 3.2l2.7-1.9c-2-3-4.9-4.5-9-4.5-6.3 0-11.5 4.8-11.5 11.5 0 6.8 5.2 11.7 11.5 11.7zm154.6-3.4h-11.2v-6.7h9.6v-3h-9.6v-6.6h10.8V8.4H466v22.5h14.7v-3.1zM30.4 307.4c-1 0-1.5 0-2.8-.3v-6.3h1.6c1.3 0 1.9.2 2.4 1v-2.6h-4v-4.9h3.7c.8 0 1.2.4 1.8 1.3v-3.2h-8.8c.8.9.9 1.1.9 1.8v13.3c0 .3-.1.5-.2.8-.2.3-.4.5-.9.9h10.2l1.1-3.2c-1.4 1.1-2.1 1.4-3.8 1.5-.5-.1-.9-.1-1.2-.1zM458.7 19.6c0-6.8-4.8-11.2-12-11.2h-6.2v22.5h6.2c7.3 0 12-4.6 12-11.3zm-14.6 8.2V11.5h2.5c5.8 0 8.5 3.4 8.5 8.2s-2.7 8.2-8.5 8.2h-2.5zm-45 181.3c-.1.4-.3.9-.3 1.1-.3.6-.9 1.1-2 2h10.9c-1.3-.8-1.9-1.3-2.2-1.9-.3-.5-.6-1.4-.6-1.8V179c0-.6.1-1.3.3-1.9.3-.6.7-1.1 1.7-2.1h-9.6c1 1 1.4 1.5 1.8 2.1.4.7.4.9.4 1.9l-.2 29.5c0 .1 0 .3-.2.6zM514.3 91.7c.1.4.1.8.1 1.1 0 .5-.1 1-.3 1.5-.3 1.1-.9 1.7-2.1 2.9l1 .8c1.6-1.2 2.2-1.8 3-2.7.6-.7 1.2-1.4 1.6-2.2.8-1.5 1.2-2.8 1.2-4.3 0-2.8-1.4-4.5-3.5-4.5-2.2 0-3.9 1.7-3.9 4.1-.3 1.5.5 2.3 2.9 3.3zm-74.5.5c11.8 0 19.4-7.7 19.4-19.5 0-11.6-7.8-19.5-19.3-19.5-11.7 0-19.8 7.9-19.8 19.2 0 11.8 8.1 19.8 19.7 19.8zm-13.9-20c0-8.9 5.4-14.8 13.7-14.8 7.9 0 14.1 7 14.1 16.2 0 8.7-5.5 14.9-13 14.9-8.2 0-14.8-6.6-14.8-15.6v-.7zm28.9 80.4c11.8 0 19.4-7.7 19.4-19.5 0-11.5-7.8-19.4-19.3-19.4-11.7 0-19.8 7.8-19.8 19.2.1 11.7 8.1 19.7 19.7 19.7zm-13.9-20c0-8.9 5.4-14.8 13.7-14.8 7.9 0 14.1 7.1 14.1 16.2 0 8.7-5.4 14.9-13 14.9-8.1 0-14.8-6.7-14.8-15.6v-.7zm-24 14.3c.9 1 1.4 1.7 2 2.2.8.8 1.7 1.5 2.6 2.2 1.3 1 1.8 1.2 3.2 1.9v-34.7c0-.6.1-1.2.3-1.8.2-.5.5-1 1.5-2.2h-8.3c1.1 1.2 1.3 1.6 1.7 2.2.1.4.2.7.2 1.1.1.3.2.5.2.7v23.8l-21.9-27.8H392c1 1 1.4 1.6 1.7 2.1.3.7.3.8.3 1.8l-.1 29.5c0 .5-.2 1.4-.4 1.8-.4.7-.8 1.1-1.9 1.9h9.5c-1.3-.8-1.7-1.3-2.1-1.9-.4-.6-.5-1.3-.5-1.8v-24.4l17.4 21.9c.1.4.5.9 1 1.5zm23.5 58.1c-3.1 2.4-4.7 3-8.5 3.3-.8.1-1.5.1-2.4.1-2.2 0-3.2-.1-6.3-.6v-13.9h3.6c2.9 0 4.2.5 5.4 2.1v-5.8h-8.8v-10.9h8.1c1.8 0 2.7.8 4.1 2.9V175H416c1.7 1.9 2 2.4 2 3.9v29.5c0 .4-.3 1.3-.6 1.8-.4.7-.8 1.1-1.9 2H438l2.4-7.2zm55.7-147.6c0 .3.1.5.1.7v23.8l-21.9-27.8h-6.4c1 1 1.4 1.5 1.6 2.1.3.7.3.8.3 1.9v29.5c0 .6-.2 1.2-.4 1.8-.3.7-.8 1.1-1.9 1.9h9.4c-1.2-.8-1.7-1.3-2-1.9-.3-.6-.5-1.3-.5-1.8V63.2l17.4 21.9c.2.3.6.8 1.2 1.4.8.9 1.4 1.6 1.9 2.2.8.8 1.7 1.5 2.6 2.2 1.2 1 1.7 1.3 3.2 1.9V58.1c0-.6.2-1.2.4-1.8.2-.5.6-1 1.6-2.2h-8.4c1.1 1.1 1.4 1.6 1.7 2.2-.1.2-.1.6.1 1.1zM471.7 206c.4.4.8.9 1.2 1.4.9.9 1.5 1.6 1.9 2.2.8.8 1.7 1.5 2.6 2.2 1.3 1 1.7 1.2 3.3 1.9V179c0-.5.1-1.3.3-1.8.2-.5.6-1.1 1.5-2.2h-8.3c1 1.1 1.3 1.6 1.6 2.2.2.2.2.6.3 1.1.1.2.1.5.1.7v23.8l-22-27.7h-6.3c1 1 1.4 1.5 1.6 2.1.4.7.4.9.4 1.9l-.1 29.5c0 .5-.2 1.3-.5 1.8-.3.7-.8 1.2-1.9 1.9h9.5c-1.3-.8-1.7-1.3-2.1-1.9-.3-.6-.5-1.3-.5-1.8V184l17.4 22zm13-91.5c1.7 1.7 2 2.3 2 3.7 0 .2 0 .2-.1.3l-4.2 29.4c-.1.5-.3 1.3-.7 1.8-.5.7-1 1.1-2.3 1.9h9.7c-1.6-1.2-2.1-2-2.1-3.5v-.1l3.6-27.2 10.5 24.8c.1.4.4 1 .9 1.9.3.7.6 1.2.8 1.7.4.6.8 1.1 1.2 1.6.6.6 1 .9 2.1 1.4l12.3-31.6 2.7 27.3v.2c0 1.5-.3 2.3-1.5 3.5h10.7c-1.6-.8-2.2-1.3-2.7-2-.3-.3-.4-.6-.6-1-.1-.3-.3-.6-.3-.7l-3.5-29.5v-.3c0-1.4.2-2 1.6-3.7h-8.7L505.4 142l-11.5-27.6h-9.2zM374.6 58.6c.7 0 1.5 0 3.2.2v28.8c0 .1-.1.3-.1.7 0 .4-.2.7-.3 1-.2.6-.6 1.1-1.7 2H386c-1.1-.8-1.7-1.3-2-2-.2-.3-.3-.7-.4-1-.1-.4-.2-.6-.2-.7V58.7c1.5-.1 2.1-.2 2.9-.2 2.8 0 4.9.6 6.1 1.6.4.4.8.9 1.1 1.4l2.3-7.4h-27.9l-2.2 6.9c2.4-1.6 3.7-2.1 6.1-2.3 1 0 1.8-.1 2.8-.1zm6.8-30.8H371V8.4h-3.5v22.5h13.8v-3.1zm-52.6 184.9c1.2.2 2.5.3 3.8.3 8.9 0 15-4.6 15-11.4 0-4.5-2.5-7.2-8.5-9.6l-4.6-1.9c-4.1-1.7-5.8-3.4-5.8-5.7 0-3.3 2.9-5.4 7.3-5.4 3 0 4.7.7 7.9 3.3v-6.6c-2.6-.7-4.5-1-7-1-8.4 0-14 4.2-14 10.5 0 4.1 2.7 7.5 7.5 9.3l5 2c1.9.7 4.1 2 5 2.9.6.7 1.2 2.2 1.2 3.3 0 3.2-3.4 5.7-7.8 5.7-1.4 0-3.5-.3-5.5-1-2.6-.8-3.5-1.2-5.9-2.7l1.9 7c1.9.5 2.5.8 4.5 1zm-6.3-8.1zM419.6 0h-3.8l-2 6.3h2.6l3.2-6.3zm2.8 27.8h-11.2v-6.7h9.5v-3h-9.5v-6.6H422V8.4h-14.3v22.5h14.7v-3.1zm89.4 150.9c3.2 0 6.1.7 8.2 2.1.3.2.7.4 1.2.8v-6.4c-3.2-.7-4.7-.9-6.7-.9-7 0-12 1.5-16.1 4.8-4.6 3.7-7.2 9.2-7.2 15.1 0 7.9 4.9 14.9 12.1 17.4 2.9 1 5.9 1.4 9.5 1.4 2.9 0 4.9-.1 9.6-.9l4.2-8.2c-4.7 3.4-9.4 5-14 5-4.3 0-9.3-2.1-12.2-5.1-2.6-2.6-3.9-6.2-3.9-10.2-.1-8.9 6.2-14.9 15.3-14.9zM403.7 88.3c-.1.4-.3.8-.3 1-.3.6-.8 1.1-2 2h10.9c-1.3-.8-1.9-1.3-2.2-2-.3-.5-.6-1.4-.6-1.8V58.1c0-.6.1-1.3.3-1.9.3-.6.7-1.1 1.7-2.1h-9.6c1 1 1.4 1.5 1.8 2.1.4.7.4.8.4 1.9l-.2 29.5c-.1.1-.1.3-.2.7zm-12.9-57.4h3.5V11.5h6.7V8.4h-16.8v3.1h6.6v19.4zm-77.5 277.4c-.1-.2-.2-.5-.3-.8v-13.3c0-.2.1-.6.2-.8.1-.3.3-.5.8-1h-4.3c.5.5.7.7.8 1 .2.3.2.4.2.8v13.3c0 .1 0 .2-.1.3-.1.2-.1.4-.2.5-.2.3-.4.5-.9.9h4.9c-.7-.4-1-.6-1.1-.9zm61.5-12.8c1.1-.7 1.7-1 2.8-1 .4 0 .8-.1 1.3-.1.3 0 .7 0 1.4.1v13.3c0 .2-.1.3-.2.5-.1.3-.3.5-.8.9h4.7c-.5-.4-.8-.6-.9-.9-.1-.1-.1-.3-.2-.5 0-.2-.1-.3-.1-.3v-13c.7-.1.9-.1 1.3-.1 1.3 0 2.2.3 2.7.7.2.2.4.4.5.7l1-3.4h-12.6l-.9 3.1zm0 0zm28.8 12.8c-.1-.1-.1-.3-.2-.5 0-.1-.1-.2-.1-.3v-13.3c0-.7.1-.9 1-1.8H400c.5.5.7.7.7 1 0 .1.1.3.2.5v5.2h-8.8v-4.9c0-.1 0-.2.1-.3 0-.2.1-.3.1-.5.2-.3.5-.7.8-1h-4.5c.9.9 1 1.1 1 1.8v13.3s0 .1-.1.3c0 .2-.1.3-.2.5-.2.3-.4.5-.9.9h4.6c-.5-.4-.7-.6-.9-.9-.1-.2-.2-.5-.2-.8V301h8.8v6.5c0 .2-.1.6-.2.8-.1.3-.3.5-.9.9h4.6c-.2-.4-.5-.6-.6-.9zm28.7-1c-.5 0-.9.1-1.4.1-.9 0-1.4 0-2.7-.2v-13l.1-.3.1-.5c.1-.2.2-.3.3-.4.1-.1.3-.3.5-.6H425c.4.5.6.7.7 1 .1.3.2.4.2.8l-.1 13.3v.3c-.1.2-.1.4-.2.5-.1.3-.3.5-.8.9H435l1.1-3.2c-1.5.9-2.2 1.2-3.8 1.3zM414.7 292c-5.3 0-8.9 3.5-8.9 8.7 0 5.3 3.6 8.9 8.9 8.9 5.3 0 8.8-3.5 8.8-8.8-.1-5.2-3.6-8.8-8.8-8.8zm.3 15.9c-3.7 0-6.7-3-6.7-7v-.3c0-4 2.4-6.7 6.2-6.7 3.6 0 6.4 3.2 6.4 7.3 0 3.9-2.5 6.7-5.9 6.7zm-80.8-20.6l-1.6 3.6h1.5l2.3-3.6h-2.2zm42.7 20.5c-.1-.1-.1-.3-.2-.3l-6.1-15.1H367c.4.6.6.9.6 1.2 0 .2-.1.5-.1.7l-4.7 11.4c.1-.1.2-.1.4-.2l-1.9 3.7h3.7c-.6-.4-.8-.7-.8-1.2 0-.2 0-.3.1-.5l1.9-4.9h6.2l1.9 4.9c.1.2.1.3.1.5 0 .5-.2.8-.9 1.2h5.4c-.8-.4-1.1-.6-1.3-.9-.4-.1-.5-.3-.7-.5zm-10.2-6.9l2.5-6.4 2.4 6.4h-4.9zm-52.3-5.4c1.1-.7 1.7-1 2.8-1 .4 0 .8-.1 1.3-.1.3 0 .7 0 1.4.1v13.3c0 .2-.1.3-.2.5-.1.3-.3.5-.8.9h4.7c-.5-.4-.8-.6-.9-.9-.1-.1-.1-.3-.2-.5 0-.1-.1-.2-.1-.3v-13c.6-.1.9-.1 1.3-.1 1.3 0 2.2.3 2.7.7.1.1.3.3.5.7l1-3.4h-12.6l-.9 3.1zm20.2 11.9c-1 0-1.5 0-2.8-.3v-6.3h1.6c1.3 0 1.9.2 2.4 1v-2.6h-4v-4.9h3.7c.8 0 1.2.4 1.8 1.3v-3.2h-8.8c.8.9.9 1.1.9 1.8v13.3c0 .3-.1.5-.2.8-.2.3-.3.5-.9.9h10.2l1.1-3.2c-1.4 1.1-2.1 1.4-3.8 1.5-.5-.1-.8-.1-1.2-.1zm105.3.9c-.1-.2-.3-.6-.3-.8v-13.3c0-.3.1-.6.2-.8.2-.4.5-.7.8-1h-4.3c.5.5.7.7.8 1 .2.3.2.4.2.8v13.3c0 .1 0 .2-.1.3-.1.2-.1.4-.2.5-.2.3-.4.5-.9.9h4.9c-.7-.4-.9-.6-1.1-.9zm-78.5 0c.2-.3.4-.5.6-.8l.7-1.8c-2 1.3-4 2-6 2-1.9 0-4.2-.9-5.5-2.3-1.1-1.2-1.7-2.8-1.7-4.6 0-4 2.8-6.7 6.9-6.7 1.4 0 2.7.3 3.7.9.1.1.3.2.5.3v-2.9c-1.5-.3-2.1-.4-3-.4-3.1 0-5.4.7-7.3 2.2-2.1 1.7-3.3 4.1-3.3 6.8 0 3.6 2.2 6.7 5.5 7.8 1.4.5 2.9.7 4.3.7 1.3 0 2.2-.1 4.3-.4H360c.8-.3 1.1-.5 1.4-.8zm99.3 3c-1-.5-1.5-.7-3.1-2-.3-.2-.8-.6-1.4-1.1 1.1-.7 1.6-1.2 2.1-1.9 1-1.5 1.6-3.5 1.6-5.5 0-5.2-3.6-8.8-8.7-8.8-5.4 0-9.1 3.5-9.1 8.7 0 5.2 3.7 8.9 8.8 8.9.8 0 1.5-.1 2.3-.1.1 0 .2.1.3.1.8.5 1.5 1.1 2.2 1.7 1.7 1.3 3.5 2.1 4.8 2.1 1.1 0 1.9-.4 3.3-1.5h-.6c-.9 0-1.5-.1-2.5-.6zm-6.1-4.3c-1 .7-1.7.9-2.7.9-1.2 0-2.5-.3-3.4-.7-.8-.4-1.5-1.1-2.1-1.9-1-1.4-1.5-2.8-1.5-4.7 0-4.3 2.4-6.8 6.4-6.8 3.5 0 6.1 3.1 6.1 7.5 0 1.7-.4 3.1-1.1 4.2-.5.6-1 1.1-1.7 1.5zm102 .4c-.9 0-1.4 0-2.7-.2v-13l.1-.3.1-.5c.1-.2.2-.3.3-.4.1-.1.3-.3.5-.6h-4.2c.4.5.6.7.7 1 .1.3.2.4.2.8l-.1 13.3v.3c-.1.2-.1.4-.2.5-.1.3-.3.5-.8.9h10.2l1.1-3.2c-1.4 1-2.1 1.2-3.7 1.4h-1.5zm-8.4.9c-.1-.2-.2-.5-.3-.8v-13.3c0-.2.1-.6.2-.8.1-.3.3-.5.8-1h-4.3c.5.5.6.7.8 1 .2.3.2.4.2.8v13.3c0 .1 0 .2-.1.3-.1.2-.1.4-.2.5-.2.3-.4.5-.9.9h4.9c-.7-.4-1-.6-1.1-.9zm31.2-.9c-1 0-1.5 0-2.8-.3v-6.3h1.6c1.3 0 1.9.2 2.4 1v-2.6h-4v-4.9h3.7c.8 0 1.2.4 1.8 1.3v-3.2h-8.8c.8.9.9 1.1.9 1.8v13.3c0 .3-.1.5-.2.8-.2.3-.3.5-.9.9h10.2l1.1-3.2c-1.4 1.1-2.1 1.4-3.8 1.5-.5-.1-.8-.1-1.2-.1zm-265-11.9zm253.5 11.9c-.9 0-1.4 0-2.7-.2v-13l.1-.3.1-.5c.1-.2.2-.3.3-.4.1-.1.3-.3.5-.6H562c.4.5.6.7.7 1 .1.3.2.4.2.8l-.1 13.3v.3c-.1.2-.1.4-.2.5-.1.3-.4.5-.8.9H572l1.1-3.2c-1.4 1-2.1 1.2-3.7 1.4h-1.5zm-28.7 0c-.9 0-1.4 0-2.7-.2v-13l.1-.3.1-.5c.1-.2.2-.3.3-.4.1-.1.3-.3.5-.6h-4.2c.4.5.6.7.7 1 .1.3.2.4.2.8l-.1 13.3v.3c-.1.2-.1.4-.2.5-.1.3-.4.5-.8.9h10.2l1.1-3.2c-1.4 1-2.1 1.2-3.7 1.4h-1.5zm-63.2 0V294c0-.3.1-.5.2-.8.1-.3.4-.5.8-.9h-4.4c.7.6.9 1 .9 1.7v9.3c0 2.7-1.6 4.2-4.3 4.2-1.8 0-3.4-.7-4-1.8-.3-.6-.4-1.2-.4-2.1v-9.4c0-.7.3-1.1 1-1.7h-4.6c.5.4.7.6.8.9.1.2.2.5.2.8v9.3c0 2.4.2 3.1 1 4.1 1 1.2 3 2 5.1 2 2.2 0 4-.7 5.1-1.8v1.4h3.7c-.8-.7-1.1-1-1.1-1.8zm44.5 0c-1 0-1.5 0-2.8-.3v-6.3h1.6c1.3 0 1.9.2 2.4 1v-2.6h-4v-4.9h3.7c.8 0 1.2.4 1.8 1.3v-3.2h-8.8c.8.9.9 1.1.9 1.8v13.3c0 .3-.1.5-.2.8-.2.3-.4.5-.9.9h10.2l1.1-3.2c-1.4 1.1-2.1 1.4-3.8 1.5-.5-.1-.8-.1-1.2-.1zm-35.7 0c-1 0-1.5 0-2.8-.3v-6.3h1.6c1.3 0 1.9.2 2.4 1v-2.6h-4v-4.9h3.7c.8 0 1.2.4 1.8 1.3v-3.2h-8.8c.8.9.9 1.1.9 1.8v13.3c0 .3-.1.5-.2.8-.2.3-.3.5-.9.9h10.2l1.1-3.2c-1.4 1.1-2.1 1.4-3.8 1.5-.5-.1-.9-.1-1.2-.1zm12-15c.1 0 .1 0 0 0zm12.8 1.8c-1.9-1.3-3.8-1.8-7.1-1.8h-5.7c.6.5.7.7.9 1 .1.3.2.5.2.8l-.1 13.3v.4c0 .2-.1.3-.2.5-.1.3-.3.5-.8.9h5.7c3.6 0 5.6-.5 7.3-2 1.9-1.6 3-4 3-6.6 0-2.8-1.1-5.1-3.2-6.5zm-1.2 11.3c-1.3 1.3-3.1 1.9-5.7 1.9-1 0-1.3 0-2.3-.2v-12.7c.8-.2 1-.2 1.9-.2 5 0 7.8 2.3 7.8 6.4.1 1.7-.6 3.6-1.7 4.8zm-262-12.1c0 .1.1.3.1.5v11l-9.9-12.5h-2.9c.4.5.6.7.7 1 .2.3.2.4.2.8v13.3c0 .3-.1.6-.2.8-.2.3-.3.5-.9.9h4.3c-.6-.3-.8-.6-.9-.9-.1-.2-.2-.5-.2-.8v-11l7.8 9.9c.1.1.3.4.5.6.4.4.7.7.9 1 .4.3.7.7 1.2 1 .6.4.8.6 1.5.9v-15.7c0-.3.1-.6.2-.8.1-.2.3-.5.7-1h-3.8c.4.5.6.7.7 1zm-93.7 6.6l-2.1-.9c-1.8-.7-2.6-1.5-2.6-2.6 0-1.5 1.3-2.5 3.3-2.5 1.3 0 2.1.3 3.6 1.5v-3c-1-.3-2.1-.4-3.2-.4-3.8 0-6.3 1.9-6.3 4.7 0 1.9 1.2 3.4 3.4 4.2l2.3.9c.9.3 1.9.9 2.3 1.3.3.3.5 1 .5 1.5 0 1.5-1.5 2.6-3.5 2.6-.6 0-1.6-.2-2.5-.4-.9-.3-1.8-.7-2.7-1.2l.9 3.2c.8.3 1.1.4 2 .5.6.1 1.2.1 1.7.1 4 0 6.8-2.1 6.8-5.1 0-2-1.1-3.2-3.9-4.4zm-32.8-4.5zm19.8-8.2l-1.6 3.6h1.5l2.3-3.6h-2.2zm-21.4 20.1c-.9 0-1.4 0-2.7-.2v-13l.1-.3.1-.5c.1-.2.2-.3.3-.4.1-.1.3-.3.5-.6h-4.2c.4.5.6.7.7 1 .1.3.2.4.2.8l-.1 13.3v.3c-.1.2-.1.4-.2.5-.1.3-.3.5-.8.9h10.2l1.1-3.2c-1.4 1-2.1 1.2-3.7 1.4h-1.5zm21.8 0c-1 0-1.5 0-2.8-.3v-6.3h1.6c1.3 0 1.9.2 2.4 1v-2.6h-4v-4.9h3.7c.8 0 1.2.4 1.8 1.3v-3.2H134c.8.9.9 1.1.9 1.8v13.3c0 .3-.1.5-.2.8-.2.3-.3.5-.9.9H144l1.1-3.2c-1.4 1.1-2.1 1.4-3.8 1.5-.5-.1-.8-.1-1.2-.1zm-20.2-11.9c1.1-.7 1.7-1 2.8-1 .4 0 .8-.1 1.3-.1.3 0 .7 0 1.4.1v13.3c0 .2-.1.3-.2.5-.1.3-.3.5-.8.9h4.7c-.5-.4-.8-.6-.9-.9-.1-.1-.1-.3-.2-.5 0-.2-.1-.3-.1-.3v-13c.7-.1.9-.1 1.3-.1 1.3 0 2.2.3 2.7.7.1.1.3.3.5.7l1-3.4h-12.6l-.9 3.1zm-60.4 13.7zm.3-8.3c1.5 0 1.8.1 2.5.9v-2.7h-3.9v-4.9h2.8c1.6 0 2 .2 2.6 1.3v-3.2h-8.7c.4.5.5.8.6 1 .1.2.1.3.1.5 0 .1.1.2.1.3v13.3c0 .1 0 .2-.1.3 0 .2-.1.4-.2.5-.2.3-.4.5-.9.9h4.8c-.5-.4-.8-.6-.9-.9-.1-.2-.1-.3-.2-.5s-.1-.3-.1-.3v-6.6h1.5zm244.6-.9l-2.1-.9c-1.8-.7-2.6-1.5-2.6-2.6 0-1.5 1.3-2.5 3.3-2.5 1.3 0 2.1.3 3.6 1.5v-3c-1.2-.3-2.1-.4-3.2-.4-3.8 0-6.3 1.9-6.3 4.7 0 1.9 1.2 3.4 3.4 4.2l2.3.9c.9.3 1.9.9 2.3 1.3.3.3.5 1 .5 1.5 0 1.5-1.5 2.6-3.5 2.6-.6 0-1.6-.2-2.5-.4-1.2-.4-1.6-.6-2.7-1.2l.9 3.1h.1c.6.3 1.3.4 1.9.5.6.1 1.2.1 1.7.1 4 0 6.8-2.1 6.8-5.1-.1-1.9-1.2-3.1-3.9-4.3zm-226.1 7.8c-.1-.1-.1-.3-.2-.3L72 292.4h-3.7c.4.6.6.9.6 1.2 0 .2-.1.5-.1.7l-5.5 13.3c-.2.3-.4.5-.6.8-.3.3-.6.5-1.3.9h4.9c-.6-.4-.8-.7-.8-1.2 0-.2 0-.3.1-.5l1.9-4.9h6.2l1.9 4.9c0 .2.1.3.1.5 0 .5-.2.8-.9 1.2H80c-.8-.4-1.1-.6-1.3-.9-.1-.2-.2-.4-.4-.6zm-10.2-6.9l2.5-6.4 2.4 6.4h-4.9zm41.7 6.5V294c0-.2.1-.6.2-.8.1-.3.3-.5.8-.9h-4.4c.7.6.9 1 .9 1.7v9.3c0 2.7-1.6 4.2-4.3 4.2-1.8 0-3.4-.7-4-1.8-.3-.6-.4-1.2-.4-2.1v-9.4c0-.7.3-1.1 1-1.7H95c.5.4.7.6.8.9.1.2.2.5.2.8v9.3c0 2.4.2 3.1 1 4.1 1 1.2 3 2 5.1 2 2.2 0 4-.7 5.2-1.8v1.4h3.7c-.9-.7-1.2-1-1.2-1.8zm-27.1-2c-1.1-1.2-1.7-2.8-1.7-4.6 0-4 2.8-6.7 6.9-6.7 1.4 0 2.7.3 3.7.9.1.1.3.2.5.3v-2.9c-1.5-.3-2.1-.4-3-.4-3.1 0-5.4.7-7.3 2.2-2.1 1.7-3.3 4.1-3.3 6.8 0 3.6 2.2 6.7 5.5 7.8 1.4.5 2.9.7 4.3.7 1.3 0 2.2-.1 4.3-.4l1.9-3.7c-2.1 1.5-4.2 2.3-6.3 2.3-1.9 0-4.2-.9-5.5-2.3zm184.7-13c.7.7.9.9.9 1.3 0 .2 0 .3-.1.4l-4.5 12.3-5.2-14.1h-3c-.1.1-.1.2-.2.3.4.4.5.5.6.7.2.3.3.5.5.8l4.8 12.3c.5 1.3.9 1.9 1.5 2.3.5.4 1.1.6 1.7.9l7-17.3h-4zm-12.4 0h.4-4.3c.5.5.7.7.8 1 .2.3.2.4.2.8v13.3c0 .1 0 .2-.1.3-.1.2-.1.4-.2.5-.2.3-.4.5-.9.9h4.9c-.6-.4-.9-.6-1-.9-.1-.2-.3-.6-.3-.8v-13.3c0-.3.1-.6.2-.8.1-.3.4-.5.6-.7l-.3-.3zm22.5 15c-1 0-1.5 0-2.8-.3v-6.3h1.6c1.3 0 1.9.2 2.4 1v-2.6h-4v-4.9h3.7c.8 0 1.2.4 1.8 1.3v-3.2h-8.8c.8.9.9 1.1.9 1.8v13.3c0 .3-.1.5-.2.8-.2.3-.3.5-.9.9h10.2l1.1-3.2c-1.4 1.1-2.1 1.4-3.8 1.5-.4-.1-.8-.1-1.2-.1zm20.2 1.5c-1-.5-1.5-.9-2.7-2.1-1.4-1.3-2.7-2.7-3.5-3.8l-1.7-2c1.8-.4 2.4-.7 3.3-1.5.7-.7 1.1-1.7 1.1-2.7 0-2.6-2.3-4.4-5.8-4.4h-5c.5.6.7.8.8 1 0 .1.1.3.1.5 0 .1.1.2.1.3v13.3c0 .7-.3 1.1-1 1.7h4.5c-.8-.6-1.1-1-1.1-1.7v-13.3h.9c2.6 0 3.9.9 3.9 2.7 0 2-1.5 3.2-4.6 3.6l.9 1.3 2.5 3.3c1 1.4 1.9 2.4 2.6 3 .2.1.3.2.5.3.7.5 1 .6 1.4.6h3.4c-.2.1-.3 0-.6-.1.1 0 .1 0 0 0zM43 300l-2.1-.9c-1.8-.7-2.6-1.5-2.6-2.6 0-1.5 1.3-2.5 3.3-2.5 1.3 0 2.1.3 3.6 1.5v-3c-1-.3-2.1-.4-3.2-.4-3.8 0-6.3 1.9-6.3 4.7 0 1.9 1.2 3.4 3.4 4.2l2.3.9c.9.3 1.9.9 2.3 1.3.3.3.5 1 .5 1.5 0 1.5-1.5 2.6-3.5 2.6-.7 0-1.6-.2-2.5-.4-.9-.3-1.8-.7-2.7-1.2l.9 3.2c.8.3 1.1.4 2 .5.6.1 1.2.1 1.7.1 4 0 6.8-2.1 6.8-5.1 0-2-1.2-3.2-3.9-4.4zm133.9-5.8c-1.9-1.3-3.8-1.8-7.1-1.8h-5.7c.6.5.7.7.9 1 .1.3.2.5.2.8l-.1 13.3v.4c0 .2-.1.3-.2.5-.1.3-.3.5-.8.9h5.7c3.6 0 5.6-.5 7.3-2 1.9-1.6 3-4 3-6.6 0-2.8-1.1-5.1-3.2-6.5zm-1.2 11.3c-1.3 1.3-3.1 1.9-5.7 1.9-1 0-1.3 0-2.3-.2v-12.7c.8-.2 1-.2 1.9-.2 5 0 7.8 2.3 7.8 6.4.1 1.7-.6 3.6-1.7 4.8zm30.7 1.9c-.9 0-1.4 0-2.7-.2v-13l.1-.3.1-.5c.1-.2.2-.3.3-.4.1-.1.3-.3.5-.6h-4.2c.4.5.6.7.7 1 .1.3.2.4.2.8l-.1 13.3v.3c-.1.2-.1.4-.2.5-.1.3-.3.5-.8.9h10.2l1.1-3.2c-1.4 1-2.1 1.2-3.7 1.4h-1.5zm24.8 0V294c0-.2.1-.6.2-.8.1-.3.3-.5.8-.9h-4.4c.7.6.9 1 .9 1.7v9.3c0 2.7-1.6 4.2-4.3 4.2-1.8 0-3.4-.7-4-1.8-.3-.6-.4-1.2-.4-2.1v-9.4c0-.7.3-1.1 1-1.7h-4.6c.5.4.7.6.8.9.1.2.2.5.2.8v9.3c0 2.4.2 3.1 1 4.1 1 1.2 3 2 5.1 2 2.2 0 4-.7 5.2-1.8v1.4h3.7c-1-.7-1.2-1-1.2-1.8zm-43.4 0c-1 0-1.5 0-2.8-.3v-6.3h1.6c1.3 0 1.9.2 2.4 1v-2.6h-4v-4.9h3.7c.8 0 1.2.4 1.8 1.3v-3.2h-8.8c.8.9.9 1.1.9 1.8v13.3c0 .3-.1.5-.2.8-.2.3-.3.5-.9.9h10.2l1.1-3.2c-1.4 1.1-2.1 1.4-3.8 1.5-.5-.1-.8-.1-1.2-.1zm25.6-15.3c-1 0-1.8.8-1.8 1.8 0 .7.3 1.1 1.4 1.6v.5c0 .2-.1.5-.2.7-.2.5-.4.8-1 1.3l.4.3c.7-.6 1-.8 1.4-1.2.3-.3.5-.7.7-1 .4-.6.5-1.3.5-1.9.2-1.4-.4-2.1-1.4-2.1zM0 266.6v2.8h599.6v-2.8H0z" fill="#676764"/><path d="M590.8 312l-2.6-1 9.2-24 2.6 1-9.2 24zM3.2 312l-2.6-1 9.2-24 2.6 1-9.2 24z" fill="#9d9b9d"/></svg>